<svg xmlns="http://www.w3.org/2000/svg" viewBox="0 0 100 100">
  <!-- χ — the Euler characteristic, the invariant the homepage proves.
       Outline extracted from Liberation Serif Bold Italic (font-independent). -->
  <rect width="100" height="100" rx="24" fill="#F2F1FA"/>
  <path d="M46.00145348837209 43.0406976744186 38.24854651162791 17.34011627906977Q37.69912790697675 15.325581395348834 35.928779069767444 13.98255813953488Q34.158430232558146 12.639534883720927 30.61773255813954 11.968023255813954L31.350290697674424 8.0H44.41424418604652Q45.57412790697675 8.854651162790695 46.79505813953489 13.25L52.350290697674424 34.799418604651166Q56.74563953488372 28.32848837209302 64.37645348837209 15.264534883720927L68.64970930232559 8.0H87.26889534883722L86.84156976744185 10.38081395348837Q78.23401162790698 21.979651162790695 57.47819767441861 52.13662790697674L66.63517441860466 82.65988372093022Q67.48982558139535 85.52906976744185 68.95494186046511 86.62790697674419Q70.42005813953489 87.72674418604652 72.43459302325581 88.03197674418604L71.70203488372093 92.0H60.40843023255814Q59.12645348837209 90.96220930232558 57.600290697674424 84.79651162790697L51.00726744186046 60.01162790697674Q41.54505813953489 73.80813953488372 31.22819767441861 92.0H12.731104651162795L13.097383720930237 89.98546511627907Q16.88226744186047 84.85755813953489 28.664244186046517 67.88662790697674Z" fill="#16162A"/>
</svg>
